<?xml version="1.0" encoding="utf-8"?>
<!-- Generator: Adobe Illustrator 16.0.0, SVG Export Plug-In . SVG Version: 6.00 Build 0)  -->
<!DOCTYPE svg PUBLIC "-//W3C//DTD SVG 1.1//EN" "http://www.w3.org/Graphics/SVG/1.1/DTD/svg11.dtd">
<svg version="1.1" xmlns="http://www.w3.org/2000/svg" xmlns:xlink="http://www.w3.org/1999/xlink" x="0px" y="0px"
	 width="293.027px" height="57.714px" viewBox="0 0 293.027 57.714" enable-background="new 0 0 293.027 57.714"
	 xml:space="preserve">
<g id="Layer_2" display="none">
	
		<image display="inline" overflow="visible" width="1648" height="1187" xlink:href="2464FE6C9E5A6E60.jpg"  transform="matrix(1 0 0 1 -671.1475 -135.0859)">
	</image>
</g>
<g id="Layer_1">
	<g>
		<linearGradient id="SVGID_1_" gradientUnits="userSpaceOnUse" x1="57.0415" y1="28.8569" x2="0.1602" y2="28.8569">
			<stop  offset="0" style="stop-color:#00396A"/>
			<stop  offset="1" style="stop-color:#009CD4"/>
		</linearGradient>
		<path fill="url(#SVGID_1_)" d="M28.857,57.554C13.034,57.554,0.16,44.68,0.16,28.857S13.034,0.16,28.857,0.16
			c4.656,0,9.25,1.134,13.344,3.287c-0.968-0.136-1.947-0.205-2.922-0.205c-9.451,0-17.689,6.335-20.034,15.407
			c-2.002,2.243-3.124,5.209-3.124,8.289c0,5.802,3.925,10.839,9.546,12.25c3.711,3.273,8.569,5.095,13.611,5.095
			c7.311,0,14.034-3.81,17.762-10.004C54.467,47.82,42.756,57.554,28.857,57.554z"/>
		<path fill="#FFFFFF" d="M28.857,0.321c4.327,0,8.599,0.984,12.462,2.86c-0.679-0.066-1.36-0.099-2.04-0.099
			c-9.498,0-17.781,6.351-20.17,15.454c-2.031,2.33-3.148,5.311-3.148,8.403c0,5.85,3.941,10.932,9.593,12.387
			c3.799,3.301,8.67,5.119,13.726,5.119c7.068,0,13.591-3.535,17.427-9.334c-2.884,13.015-14.325,22.284-27.85,22.284
			c-15.735,0-28.537-12.801-28.537-28.536S13.122,0.321,28.857,0.321 M28.857,0C12.92,0,0,12.92,0,28.857
			c0,15.938,12.92,28.857,28.857,28.857c14.389,0,26.317-10.532,28.499-24.309c-3.465,6.381-10.26,10.717-18.077,10.717
			c-5.204,0-9.955-1.923-13.572-5.09c-5.415-1.359-9.425-6.259-9.425-12.095c0-3.163,1.179-6.05,3.119-8.249
			c2.272-8.79,10.31-15.287,19.879-15.287c1.306,0,2.583,0.123,3.821,0.354C38.899,1.366,34.037,0,28.857,0L28.857,0z
			 M57.356,33.405h0.005H57.356z"/>
	</g>
	<g>
		<path fill="#FFFFFF" d="M57.602,33.511c0,0-0.417,1.012-1.399,2.61c-0.979,1.597-2.532,3.82-4.877,6.033
			c-1.159,1.116-2.538,2.203-4.108,3.17c-0.771,0.51-1.629,0.918-2.489,1.361c-0.896,0.369-1.798,0.78-2.769,1.053
			c-0.948,0.343-1.961,0.513-2.968,0.742c-1.027,0.125-2.06,0.316-3.117,0.318c-2.108,0.141-4.248-0.105-6.357-0.435
			c-2.096-0.418-4.165-0.971-6.134-1.704c-1.979-0.709-3.853-1.586-5.646-2.468c-0.878-0.478-1.742-0.947-2.586-1.406
			c-0.843-0.462-1.624-0.991-2.407-1.464c-1.579-0.93-2.961-1.978-4.282-2.876c-1.314-0.909-2.438-1.851-3.477-2.628
			c-1.042-0.774-1.885-1.532-2.602-2.126c-1.424-1.202-2.237-1.888-2.237-1.888s0.819,0.68,2.252,1.871
			c0.722,0.588,1.569,1.339,2.617,2.104c1.044,0.769,2.175,1.702,3.495,2.6c1.327,0.887,2.715,1.922,4.299,2.838
			c0.786,0.466,1.569,0.987,2.414,1.442c0.847,0.452,1.711,0.913,2.591,1.382c1.794,0.865,3.667,1.725,5.643,2.415
			c1.965,0.714,4.025,1.247,6.107,1.646c2.094,0.31,4.214,0.537,6.294,0.381c1.044-0.01,2.062-0.208,3.072-0.338
			c0.991-0.235,1.988-0.409,2.918-0.754c0.953-0.275,1.837-0.688,2.714-1.057c0.843-0.443,1.683-0.85,2.437-1.358
			c1.537-0.963,2.883-2.042,4.014-3.149c2.29-2.194,3.802-4.395,4.751-5.971c0.957-1.587,1.345-2.557,1.345-2.557L57.602,33.511z"/>
	</g>
	<g>
		<path fill="none" d="M11.362,25.226"/>
	</g>
	<g>
		<path fill="none" d="M43.101,3.756"/>
	</g>
	<path fill="none" stroke="#231F20" stroke-width="0.1069" d="M16.298,38.337"/>
	<path fill="none" stroke="#231F20" stroke-width="0.1069" d="M33.654,3.205"/>
	<path fill="none" stroke="#FFFFFF" stroke-width="0.2138" d="M47.814,44.712c0,0-5.639,12.382-23.603,7.23
		C6.248,46.791,8.15,48.955,8.15,48.955"/>
	<path fill="none" stroke="#FFFFFF" stroke-width="0.3206" d="M3.594,14.9c8.703,4.753,8.041,7.552,10.076,15.123
		c5.344,19.88,26.554,18.03,26.554,18.03"/>
	<g>
		<path fill="#FFFFFF" d="M43.065,3.912c0,0-0.671-0.164-1.876-0.356c-1.201-0.195-2.933-0.401-5.021-0.463
			c-2.084-0.059-4.536,0.06-7.089,0.597c-1.275,0.275-2.564,0.678-3.828,1.203c-1.242,0.569-2.472,1.236-3.556,2.111
			c-1.068,0.881-2.071,1.869-2.82,3.018c-0.807,1.11-1.36,2.353-1.837,3.565c-0.211,0.617-0.374,1.24-0.558,1.841
			c-0.137,0.613-0.24,1.221-0.357,1.809c-0.111,0.589-0.132,1.174-0.2,1.734c-0.073,0.561-0.089,1.105-0.09,1.629
			c-0.01,0.523-0.019,1.025-0.027,1.502c0.026,0.477,0.051,0.929,0.075,1.354c0.035,0.851,0.093,1.591,0.184,2.196
			c0.149,1.213,0.234,1.907,0.234,1.907s-0.09-0.693-0.248-1.905c-0.095-0.605-0.159-1.344-0.2-2.195
			c-0.027-0.425-0.055-0.877-0.084-1.354c0.005-0.478,0.011-0.98,0.016-1.504c-0.003-0.525,0.01-1.071,0.079-1.633
			c0.064-0.562,0.081-1.149,0.188-1.74c0.113-0.591,0.211-1.201,0.345-1.818c0.18-0.605,0.339-1.232,0.547-1.854
			c0.471-1.224,1.02-2.479,1.825-3.605c0.748-1.165,1.753-2.171,2.827-3.069c1.09-0.892,2.329-1.576,3.58-2.16
			c1.273-0.54,2.573-0.956,3.857-1.243c2.573-0.561,5.042-0.697,7.143-0.653c2.104,0.047,3.849,0.243,5.062,0.43
			C42.448,3.438,43.137,3.6,43.137,3.6L43.065,3.912z"/>
	</g>
	<linearGradient id="SVGID_2_" gradientUnits="userSpaceOnUse" x1="31.3057" y1="23.4629" x2="46.9927" y2="23.4629">
		<stop  offset="0" style="stop-color:#009CD4"/>
		<stop  offset="1" style="stop-color:#00396A"/>
	</linearGradient>
	<circle fill="url(#SVGID_2_)" stroke="#FFFFFF" stroke-width="0.3206" cx="39.149" cy="23.462" r="7.844"/>
	<linearGradient id="SVGID_3_" gradientUnits="userSpaceOnUse" x1="44.4473" y1="19.5195" x2="36.657" y2="27.3098">
		<stop  offset="0" style="stop-color:#00396A"/>
		<stop  offset="1" style="stop-color:#009CD4"/>
	</linearGradient>
	<path fill="url(#SVGID_3_)" stroke="#FFFFFF" stroke-width="0.1069" d="M40.521,15.738c0,0-11.496,2.849-2.266,11.286
		c3.893,3.688,2.275,4.16,2.275,4.16s3.688-0.906,4.819-2.918c0,0,2.595-3.266-3.569-5.476c-9.869-3.537-1.081-7.019-1.081-7.019
		L40.521,15.738z"/>
</g>
<g id="Layer_3">
	
		<image display="none" overflow="visible" width="1200" height="600" xlink:href="2464FE6C9E5A6E60.png"  transform="matrix(0.3585 0 0 0.3585 -71.0825 -78.7773)">
	</image>
	<g>
		<path fill="#0378AE" d="M77.362,10.918c3.037-3.137,7.319-5.178,12.049-5.178c7.966,0,14.24,4.979,16.231,12.846h-4.979
			c-1.842-5.228-6.124-7.867-11.252-7.867c-3.336,0-6.373,1.444-8.563,3.734c-2.191,2.29-3.585,5.377-3.585,8.962
			c0,3.485,1.394,6.572,3.585,8.862c2.19,2.291,5.228,3.734,8.563,3.734c5.278,0,9.759-3.037,11.551-8.315h4.929
			c-1.992,7.917-8.365,13.294-16.48,13.294c-4.73,0-9.012-1.992-12.049-5.178c-2.987-3.187-4.979-7.568-4.979-12.397
			C72.383,18.486,74.375,14.104,77.362,10.918z"/>
		<path fill="#0378AE" d="M117.637,10.719c3.187-3.236,7.667-5.278,12.547-5.278c4.929,0,9.36,2.042,12.597,5.278
			c3.137,3.236,5.178,7.667,5.178,12.597s-2.042,9.36-5.178,12.597c-3.236,3.286-7.667,5.278-12.597,5.278
			c-4.879,0-9.36-1.992-12.547-5.278c-3.137-3.236-5.178-7.667-5.178-12.597S114.5,13.955,117.637,10.719z M139.196,14.304
			c-2.34-2.34-5.576-3.784-9.012-3.784s-6.622,1.444-8.912,3.784c-2.291,2.29-3.734,5.477-3.734,9.012s1.444,6.722,3.734,9.012
			c2.29,2.34,5.477,3.784,8.912,3.784s6.672-1.444,9.012-3.784c2.241-2.29,3.685-5.427,3.685-9.012S141.437,16.594,139.196,14.304z"
			/>
		<path fill="#0378AE" d="M156.07,40.742V5.839l3.884,0.05l16.978,24.546V5.889h4.979v34.853h-3.983l-16.829-24.347v24.347H156.07z"
			/>
		<path fill="#0378AE" d="M194.604,10.719c3.187-3.236,7.668-5.278,12.547-5.278c4.93,0,9.361,2.042,12.598,5.278
			c3.137,3.236,5.178,7.667,5.178,12.597s-2.041,9.36-5.178,12.597c-3.236,3.286-7.668,5.278-12.598,5.278
			c-4.879,0-9.36-1.992-12.547-5.278c-3.137-3.236-5.178-7.667-5.178-12.597S191.467,13.955,194.604,10.719z M216.163,14.304
			c-2.341-2.34-5.577-3.784-9.013-3.784c-3.435,0-6.621,1.444-8.912,3.784c-2.29,2.29-3.734,5.477-3.734,9.012
			s1.444,6.722,3.734,9.012c2.291,2.34,5.478,3.784,8.912,3.784c3.436,0,6.672-1.444,9.013-3.784c2.24-2.29,3.684-5.427,3.684-9.012
			S218.403,16.594,216.163,14.304z"/>
		<path fill="#0378AE" d="M248.224,25.655c0,10.356-8.514,15.086-19.219,15.086v-5.029c7.917,0,14.19-3.137,14.19-10.058V10.918
			h-9.41V5.939h14.438V25.655z"/>
		<path fill="#0378AE" d="M260.369,10.719c3.187-3.236,7.668-5.278,12.547-5.278c4.93,0,9.361,2.042,12.598,5.278
			c3.137,3.236,5.178,7.667,5.178,12.597s-2.041,9.36-5.178,12.597c-3.236,3.286-7.668,5.278-12.598,5.278
			c-4.879,0-9.36-1.992-12.547-5.278c-3.137-3.236-5.178-7.667-5.178-12.597S257.232,13.955,260.369,10.719z M281.929,14.304
			c-2.341-2.34-5.577-3.784-9.013-3.784c-3.435,0-6.621,1.444-8.912,3.784c-2.29,2.29-3.734,5.477-3.734,9.012
			s1.444,6.722,3.734,9.012c2.291,2.34,5.478,3.784,8.912,3.784c3.436,0,6.672-1.444,9.013-3.784c2.24-2.29,3.684-5.427,3.684-9.012
			S284.169,16.594,281.929,14.304z"/>
	</g>
	<rect x="-85.995" y="47.562" fill="none" width="374.324" height="140.9"/>
	<text transform="matrix(1 0 0 1 157.7881 54.9395)" fill="#818281" font-family="'HelveticaNeue-Light'" font-size="10.3327">Your Interactive Drawing Tool</text>
</g>
</svg>
