<?xml version="1.0" encoding="utf-8"?>
<!-- Generator: Adobe Illustrator 16.0.0, SVG Export Plug-In . SVG Version: 6.00 Build 0)  -->
<!DOCTYPE svg PUBLIC "-//W3C//DTD SVG 1.1//EN" "http://www.w3.org/Graphics/SVG/1.1/DTD/svg11.dtd">
<svg version="1.1" id="Layer_1" xmlns="http://www.w3.org/2000/svg" xmlns:xlink="http://www.w3.org/1999/xlink" x="0px" y="0px"
	 width="144.988px" height="28.786px" viewBox="0 0 144.988 28.786" enable-background="new 0 0 144.988 28.786"
	 xml:space="preserve">
<image display="none" overflow="visible" width="190" height="56" xlink:href="../../../../../../../Users/Johnnythaitran/Desktop/Screen Shot 2014-07-16 at 5.38.27 PM.png"  transform="matrix(1 0 0 1 -11.3833 -13.001)">
</image>
<g>
	<linearGradient id="SVGID_1_" gradientUnits="userSpaceOnUse" x1="28.2822" y1="14.3931" x2="0.1602" y2="14.3931">
		<stop  offset="0" style="stop-color:#00396A"/>
		<stop  offset="1" style="stop-color:#009CD4"/>
	</linearGradient>
	<path fill="url(#SVGID_1_)" d="M14.393,28.626c-7.848,0-14.232-6.385-14.232-14.232C0.16,6.545,6.545,0.16,14.393,0.16
		c2.157,0,4.287,0.491,6.213,1.426c-0.338-0.033-0.677-0.049-1.015-0.049c-4.75,0-8.891,3.185-10.07,7.745
		c-0.994,1.101-1.561,2.6-1.561,4.154c0,2.932,1.983,5.477,4.822,6.188c1.833,1.628,4.274,2.544,6.809,2.544
		c3.524,0,6.777-1.763,8.691-4.654C26.844,24.004,21.138,28.626,14.393,28.626z"/>
	<path fill="#FFFFFF" d="M14.393,0.321c1.842,0,3.665,0.362,5.355,1.057c-0.052-0.001-0.104-0.001-0.156-0.001
		c-4.797,0-8.983,3.2-10.206,7.791c-1.023,1.188-1.586,2.7-1.586,4.269c0,2.979,1.998,5.569,4.869,6.325
		c1.92,1.656,4.375,2.567,6.923,2.567c3.291,0,6.349-1.514,8.33-4.04c-1.7,5.988-7.144,10.178-13.529,10.178
		c-7.759,0-14.072-6.312-14.072-14.072S6.633,0.321,14.393,0.321 M14.393,0C6.443,0,0,6.444,0,14.394
		c0,7.948,6.443,14.393,14.393,14.393c7.177,0,13.127-5.254,14.214-12.124c-1.728,3.182-5.117,5.346-9.016,5.346
		c-2.596,0-4.966-0.96-6.77-2.539c-2.701-0.678-4.701-3.123-4.701-6.033c0-1.577,0.588-3.017,1.556-4.114
		c1.133-4.384,5.142-7.625,9.915-7.625c0.652,0,1.288,0.062,1.906,0.177C19.401,0.682,16.976,0,14.393,0L14.393,0z M28.607,16.662
		h0.005H28.607z"/>
</g>
<g>
	<path fill="#FFFFFF" d="M28.853,16.768c0,0-0.215,0.515-0.711,1.315c-0.496,0.802-1.28,1.916-2.464,3.024
		c-1.173,1.104-2.777,2.207-4.721,2.791c-0.963,0.306-2.001,0.49-3.059,0.521c-1.059,0.066-2.131-0.061-3.186-0.229
		c-1.049-0.214-2.083-0.494-3.066-0.865c-0.988-0.358-1.922-0.8-2.816-1.244c-0.879-0.474-1.724-0.939-2.488-1.443
		c-0.786-0.467-1.474-0.992-2.131-1.443c-0.654-0.456-1.213-0.929-1.729-1.318c-0.519-0.388-0.937-0.768-1.293-1.065
		c-0.708-0.603-1.112-0.946-1.112-0.946s0.41,0.338,1.127,0.929c0.361,0.292,0.785,0.664,1.309,1.044
		c0.522,0.382,1.088,0.845,1.748,1.289c0.663,0.44,1.357,0.953,2.148,1.407c0.769,0.489,1.618,0.939,2.499,1.396
		c0.896,0.428,1.83,0.852,2.814,1.191c0.979,0.352,2.004,0.611,3.039,0.806c1.041,0.149,2.093,0.258,3.124,0.177
		c1.031-0.046,2.036-0.241,2.964-0.553c1.873-0.594,3.403-1.684,4.521-2.769c1.127-1.09,1.872-2.182,2.337-2.963
		c0.471-0.788,0.658-1.262,0.658-1.262L28.853,16.768z"/>
</g>
<g>
	<path fill="none" d="M5.667,12.582"/>
</g>
<g>
	<path fill="none" d="M21.497,1.874"/>
</g>
<path fill="none" stroke="#231F20" stroke-width="0.1069" d="M8.129,19.121"/>
<path fill="none" stroke="#231F20" stroke-width="0.1069" d="M16.786,1.599"/>
<path fill="none" stroke="#FFFFFF" stroke-width="0.2138" d="M23.848,22.302c0,0-2.812,6.176-11.772,3.605
	c-8.96-2.568-8.011-1.49-8.011-1.49"/>
<path fill="none" stroke="#FFFFFF" stroke-width="0.3206" d="M1.792,7.432c4.34,2.371,4.011,3.768,5.025,7.543
	c2.666,9.916,13.244,8.992,13.244,8.992"/>
<g>
	<path fill="#FFFFFF" d="M21.461,2.03c0,0-1.345-0.349-3.423-0.419c-1.036-0.033-2.254,0.021-3.522,0.284
		c-1.264,0.266-2.582,0.773-3.669,1.63c-0.531,0.435-1.031,0.923-1.405,1.493c-0.402,0.549-0.68,1.166-0.919,1.768
		C8.416,7.092,8.334,7.401,8.241,7.7C8.179,8.007,8.119,8.308,8.06,8.6C7.984,9.19,7.905,9.753,7.91,10.275
		c-0.023,0.521-0.015,1,0.019,1.423c0.016,0.425,0.043,0.794,0.088,1.096c0.072,0.605,0.113,0.951,0.113,0.951
		s-0.046-0.346-0.127-0.95c-0.049-0.301-0.082-0.67-0.104-1.095c-0.04-0.424-0.055-0.902-0.039-1.427
		C7.847,9.75,7.919,9.185,7.987,8.589c0.055-0.296,0.111-0.6,0.169-0.909c0.089-0.303,0.167-0.617,0.271-0.929
		C8.66,6.138,8.932,5.509,9.333,4.943c0.373-0.585,0.875-1.091,1.412-1.543c1.1-0.893,2.439-1.43,3.723-1.72
		c1.288-0.285,2.524-0.358,3.576-0.34c2.109,0.041,3.489,0.377,3.489,0.377L21.461,2.03z"/>
</g>
<linearGradient id="SVGID_2_" gradientUnits="userSpaceOnUse" x1="15.6143" y1="11.7026" x2="23.438" y2="11.7026">
	<stop  offset="0" style="stop-color:#009CD4"/>
	<stop  offset="1" style="stop-color:#00396A"/>
</linearGradient>
<circle fill="url(#SVGID_2_)" stroke="#FFFFFF" stroke-width="0.3206" cx="19.526" cy="11.702" r="3.912"/>
<linearGradient id="SVGID_3_" gradientUnits="userSpaceOnUse" x1="22.1689" y1="9.7368" x2="18.284" y2="13.6218">
	<stop  offset="0" style="stop-color:#00396A"/>
	<stop  offset="1" style="stop-color:#009CD4"/>
</linearGradient>
<path fill="url(#SVGID_3_)" stroke="#FFFFFF" stroke-width="0.1069" d="M20.21,7.85c0,0-5.733,1.421-1.13,5.63
	c1.941,1.839,1.135,2.074,1.135,2.074s1.839-0.452,2.403-1.455c0,0,1.294-1.629-1.78-2.731c-4.923-1.764-0.54-3.5-0.54-3.5
	L20.21,7.85z"/>
<image display="none" overflow="visible" width="1200" height="600" xlink:href="52D5C356F2B98CB8.png"  transform="matrix(0.3585 0 0 0.3585 -124.4658 -118.7778)">
</image>
<g>
	<path fill="#0378AE" d="M38.585,5.446c1.515-1.565,3.651-2.583,6.009-2.583c3.974,0,7.103,2.483,8.096,6.407h-2.483
		c-0.919-2.607-3.055-3.923-5.613-3.923c-1.664,0-3.178,0.72-4.271,1.863c-1.093,1.142-1.788,2.682-1.788,4.47
		c0,1.738,0.695,3.278,1.788,4.42c1.093,1.143,2.607,1.862,4.271,1.862c2.633,0,4.868-1.515,5.762-4.146h2.458
		c-0.993,3.948-4.172,6.631-8.22,6.631c-2.358,0-4.495-0.994-6.009-2.583c-1.49-1.59-2.484-3.774-2.484-6.184
		C36.102,9.221,37.096,7.035,38.585,5.446z"/>
	<path fill="#0378AE" d="M58.674,5.346c1.589-1.614,3.824-2.632,6.257-2.632c2.459,0,4.669,1.018,6.284,2.632
		c1.564,1.614,2.583,3.825,2.583,6.283c0,2.459-1.019,4.669-2.583,6.283c-1.614,1.639-3.825,2.632-6.284,2.632
		c-2.434,0-4.668-0.993-6.257-2.632c-1.565-1.614-2.583-3.824-2.583-6.283C56.09,9.171,57.109,6.96,58.674,5.346z M69.426,7.134
		c-1.166-1.167-2.78-1.887-4.495-1.887c-1.713,0-3.302,0.72-4.445,1.887c-1.142,1.143-1.863,2.732-1.863,4.495
		c0,1.764,0.721,3.353,1.863,4.495c1.143,1.166,2.731,1.887,4.445,1.887c1.714,0,3.329-0.721,4.495-1.887
		c1.118-1.143,1.838-2.707,1.838-4.495S70.544,8.276,69.426,7.134z"/>
	<path fill="#0378AE" d="M77.843,20.32V2.912l1.938,0.025l8.467,12.242V2.938h2.484V20.32h-1.987L80.351,8.177V20.32H77.843z"/>
	<path fill="#0378AE" d="M97.062,5.346c1.59-1.614,3.824-2.632,6.258-2.632c2.459,0,4.67,1.018,6.284,2.632
		c1.563,1.614,2.582,3.825,2.582,6.283c0,2.459-1.019,4.669-2.582,6.283c-1.614,1.639-3.825,2.632-6.284,2.632
		c-2.434,0-4.668-0.993-6.258-2.632c-1.564-1.614-2.583-3.824-2.583-6.283C94.479,9.171,95.498,6.96,97.062,5.346z M107.815,7.134
		c-1.167-1.167-2.782-1.887-4.495-1.887s-3.302,0.72-4.445,1.887c-1.142,1.143-1.862,2.732-1.862,4.495
		c0,1.764,0.721,3.353,1.862,4.495c1.144,1.166,2.732,1.887,4.445,1.887s3.328-0.721,4.495-1.887
		c1.118-1.143,1.838-2.707,1.838-4.495S108.933,8.276,107.815,7.134z"/>
	<path fill="#0378AE" d="M123.806,12.796c0,5.165-4.246,7.524-9.586,7.524v-2.507c3.949,0,7.078-1.565,7.078-5.018v-7.35h-4.693
		V2.962h7.201V12.796z"/>
	<path fill="#0378AE" d="M129.865,5.346c1.588-1.614,3.824-2.632,6.258-2.632c2.458,0,4.668,1.018,6.282,2.632
		c1.565,1.614,2.583,3.825,2.583,6.283c0,2.459-1.018,4.669-2.583,6.283c-1.614,1.639-3.824,2.632-6.282,2.632
		c-2.434,0-4.67-0.993-6.258-2.632c-1.565-1.614-2.583-3.824-2.583-6.283C127.282,9.171,128.299,6.96,129.865,5.346z M140.617,7.134
		c-1.167-1.167-2.781-1.887-4.494-1.887c-1.714,0-3.303,0.72-4.445,1.887c-1.143,1.143-1.863,2.732-1.863,4.495
		c0,1.764,0.721,3.353,1.863,4.495c1.143,1.166,2.731,1.887,4.445,1.887c1.713,0,3.327-0.721,4.494-1.887
		c1.117-1.143,1.838-2.707,1.838-4.495S141.734,8.276,140.617,7.134z"/>
</g>
<rect x="-42.892" y="23.724" fill="none" width="186.702" height="70.275"/>
<text transform="matrix(1 0 0 1 78.6997 27.4033)" fill="#818281" font-family="'HelveticaNeue-Light'" font-size="5.1536">Your Interactive Drawing Tool</text>
</svg>
